<svg version="1.1" id="Layer_1" xmlns="http://www.w3.org/2000/svg" xmlns:xlink="http://www.w3.org/1999/xlink" x="0px" y="0px"
	 width="100%" viewBox="0 0 628 486" enable-background="new 0 0 628 486" xml:space="preserve">
<path fill="#0E1118" opacity="1.000000" stroke="none" 
	d="
M325.000000,487.000000 
	C218.023895,487.000000 111.547775,486.982117 5.071762,487.084412 
	C1.805495,487.087555 0.894109,486.644531 0.896784,483.073395 
	C1.016089,323.775909 1.018349,164.478287 0.889074,5.180806 
	C0.885995,1.386973 1.897576,0.917188 5.317413,0.918691 
	C211.771057,1.009422 418.224731,1.009279 624.678345,0.919661 
	C628.086792,0.918181 629.114868,1.371058 629.111755,5.176576 
	C628.981384,164.307434 628.982178,323.438416 629.104431,482.569275 
	C629.107422,486.474457 628.056091,487.091034 624.432556,487.087067 
	C524.788452,486.978302 425.144226,487.000000 325.000000,487.000000 
z"/>
<path fill="#E8E9EA" opacity="1.000000" stroke="none" 
	d="
M250.019592,182.811279 
	C251.971848,178.524979 253.609024,174.503723 255.634659,170.688736 
	C263.576477,155.731476 277.106995,152.188126 290.464783,162.634201 
	C295.720947,166.744614 298.449890,166.793655 303.755249,163.047241 
	C314.060333,155.770279 325.139191,155.054428 335.579193,163.475113 
	C337.794434,165.261856 339.176025,164.796555 341.055756,163.046814 
	C345.714325,158.710388 350.645966,154.779175 357.312347,153.896332 
	C364.123230,152.994339 369.987610,154.798553 374.251373,160.233795 
	C385.287445,174.302139 389.260803,190.620834 387.634460,208.085358 
	C386.641357,218.749710 378.661346,223.012161 368.465210,219.652725 
	C367.832489,219.444244 367.184937,219.262024 366.581879,218.985580 
	C361.632538,216.716858 357.584900,214.348816 353.931763,221.944061 
	C351.078888,227.875504 341.156372,227.725357 334.610413,223.116577 
	C329.857025,219.769867 326.727539,215.056671 324.046967,210.012634 
	C323.048798,208.134415 323.131348,206.327286 325.159424,205.318100 
	C326.955475,204.424347 328.309418,205.463409 329.327271,207.012619 
	C330.970703,209.513947 332.542236,212.074738 334.354767,214.449677 
	C336.649658,217.456650 339.631317,219.566772 343.516327,219.947235 
	C347.046112,220.292892 349.595642,218.866058 351.073639,215.513824 
	C352.693695,211.839447 349.731323,210.949493 347.617767,209.483383 
	C345.292450,207.870407 342.928833,206.302277 340.703247,204.559616 
	C339.250885,203.422409 338.700928,201.853470 339.940582,200.175995 
	C341.197296,198.475479 342.685364,198.811493 344.354187,199.669632 
	C345.968140,200.499573 347.497528,203.273819 349.279572,201.553421 
	C350.684082,200.197525 348.851746,197.858612 348.244568,196.025314 
	C345.557159,187.910950 341.807953,180.308655 336.718781,173.431564 
	C328.113678,161.803436 314.417297,160.629990 303.737061,170.410645 
	C301.925018,172.070053 301.458801,173.293854 303.310486,175.296173 
	C307.866211,180.222504 312.445374,185.073120 319.220184,186.867081 
	C321.538788,187.481049 322.948853,188.616425 322.159332,191.065826 
	C321.328247,193.644150 319.169250,193.337448 317.166168,192.719742 
	C310.606171,190.696793 305.139618,186.874237 300.892120,181.611847 
	C297.780090,177.756256 296.241913,178.753464 294.452087,182.542053 
	C292.029633,187.669785 289.901825,192.900314 288.033875,198.249863 
	C287.318176,200.299469 286.504974,202.776779 283.620880,201.796265 
	C280.820221,200.844147 281.425201,198.468399 282.189484,196.327087 
	C284.653351,189.423889 287.068512,182.471252 291.167511,176.333847 
	C292.801636,173.887115 292.457916,172.311600 290.511414,170.316925 
	C280.020416,159.566269 268.527893,160.821121 261.054199,173.743820 
	C255.396347,183.526688 251.986618,194.109741 250.594498,205.305954 
	C249.319489,215.560333 255.664474,222.330353 266.023926,222.099228 
	C270.825775,221.992096 275.208191,220.662430 279.199005,218.023209 
	C283.230713,215.356934 287.146332,212.541870 290.736572,209.282318 
	C292.442993,207.733093 294.435486,205.600220 296.620178,208.269913 
	C298.431976,210.483871 296.644928,212.258774 294.940247,213.744415 
	C288.773712,219.118652 282.531006,224.340057 274.576599,227.010910 
	C256.082977,233.220520 241.657150,221.099686 244.825500,201.946564 
	C245.888321,195.521637 247.469131,189.233475 250.019592,182.811279 
z"/>
<path fill="#E6E6E8" opacity="1.000000" stroke="none" 
	d="
M214.349182,213.661118 
	C215.620331,220.156052 219.704224,223.918259 224.728943,226.895203 
	C232.914215,231.744598 242.001343,233.817566 251.246368,235.301025 
	C285.543304,240.804306 320.024933,243.739197 354.773163,241.859344 
	C369.528320,241.061096 383.787262,237.868225 397.017426,230.880585 
	C401.032684,228.759888 404.662964,226.134827 408.070282,223.198700 
	C422.098511,211.110428 419.350281,192.892456 402.316101,185.347366 
	C399.291656,184.007751 396.004578,183.263809 392.845215,182.225189 
	C391.100098,181.651489 389.776306,180.596848 390.212982,178.589508 
	C390.627014,176.686340 392.121765,175.877518 394.005157,176.155655 
	C408.225067,178.255585 421.211273,188.416534 423.112091,203.002792 
	C424.313629,212.223221 420.629059,219.567078 414.242310,225.849197 
	C402.213104,237.681396 387.081421,242.905960 371.013428,246.128342 
	C349.688202,250.405045 328.161530,248.935715 306.728058,247.839661 
	C286.770782,246.819122 266.871643,244.686569 247.177185,241.058228 
	C237.949677,239.358231 229.045258,236.764160 220.885574,231.947266 
	C208.792175,224.808212 204.847626,213.569016 210.598343,200.792740 
	C217.604568,185.227173 229.567017,174.499374 244.828598,167.240402 
	C246.788498,166.308212 248.871506,165.736206 250.007080,168.102142 
	C251.272690,170.738968 249.365097,171.967758 247.203354,172.960220 
	C235.198120,178.471802 225.771408,186.912354 218.957230,198.215942 
	C216.186707,202.811798 213.840744,207.602997 214.349182,213.661118 
z"/>
<path fill="#EAEBEC" opacity="1.000000" stroke="none" 
	d="
M313.650635,297.760345 
	C312.666016,299.142242 311.939178,300.282410 310.972534,301.157837 
	C309.638763,302.365723 309.644501,303.133667 311.186707,304.180084 
	C315.835785,307.334503 317.066193,311.781433 315.088806,316.865356 
	C313.091797,321.999817 308.713867,323.855957 303.507385,323.949493 
	C298.346924,324.042236 293.179016,323.847198 288.023376,324.030609 
	C285.128479,324.133606 284.312836,323.023987 284.343506,320.245911 
	C284.462921,309.423584 284.493591,298.597351 284.315582,287.776550 
	C284.263580,284.614197 285.417023,283.726501 288.369507,283.833893 
	C293.192383,284.009338 298.029144,283.782776 302.854095,283.925781 
	C311.229919,284.174011 315.015045,288.908173 313.650635,297.760345 
z"/>
<path fill="#EFEFF0" opacity="1.000000" stroke="none" 
	d="
M519.551331,323.952942 
	C515.065125,324.724701 512.663879,322.911469 511.156433,319.148560 
	C510.112549,316.542816 508.513977,314.162292 507.209869,311.656860 
	C506.243347,309.799988 504.585052,309.876007 502.898132,310.014038 
	C500.692474,310.194519 500.960846,311.889404 500.930634,313.352905 
	C500.896301,315.014038 500.702972,316.712616 500.967072,318.331543 
	C501.749054,323.125000 499.602203,324.403229 495.143372,324.054047 
	C492.532410,323.849579 491.726074,323.018860 491.747009,320.490082 
	C491.839233,309.356293 491.831543,298.220978 491.751129,287.087006 
	C491.734131,284.732452 492.556641,283.804962 494.928070,283.857788 
	C500.077545,283.972504 505.239838,283.736145 510.379852,283.989532 
	C515.638428,284.248749 519.670532,286.881134 521.449829,291.899139 
	C523.276855,297.051636 523.034729,302.358551 518.647888,306.150543 
	C515.970154,308.465271 516.025208,310.138245 517.718262,312.763519 
	C519.424316,315.408844 520.732422,318.307739 522.286987,321.054688 
	C524.011597,324.102051 521.888550,323.930664 519.551331,323.952942 
z"/>
<path fill="#EBEBEC" opacity="1.000000" stroke="none" 
	d="
M432.662262,319.596039 
	C432.669250,307.540588 432.666962,307.726898 421.192596,307.585327 
	C417.083344,307.534668 415.853821,308.974792 416.291779,312.782318 
	C416.518646,314.755096 416.076721,316.815216 416.381561,318.766449 
	C417.132568,323.573669 414.714386,324.279541 410.655304,324.067474 
	C407.719025,323.914032 407.024719,322.787872 407.050079,320.121216 
	C407.152924,309.294983 407.250092,298.464172 407.024567,287.641785 
	C406.944458,283.798126 408.957611,283.810455 411.698792,283.829590 
	C414.401062,283.848419 416.780609,283.744202 416.360870,287.630280 
	C416.111908,289.934967 416.579163,292.323792 416.271667,294.614014 
	C415.654480,299.210785 417.689514,300.172546 421.928558,300.078217 
	C432.630524,299.840179 432.884125,300.025360 432.544159,289.253143 
	C432.399750,284.676361 433.887238,283.495972 438.188843,283.770386 
	C441.136353,283.958374 441.795837,285.027954 441.770050,287.700623 
	C441.665710,298.526733 441.668427,309.355164 441.777405,320.181244 
	C441.804840,322.908325 441.033600,324.216034 438.107025,324.002930 
	C435.386017,323.804779 432.000458,324.801727 432.662262,319.596039 
z"/>
<path fill="#ECEDEE" opacity="1.000000" stroke="none" 
	d="
M149.775681,318.781128 
	C141.357895,326.142761 131.216125,326.733307 123.615364,320.553101 
	C116.426369,314.707703 114.408165,301.559875 119.317535,292.554504 
	C123.639488,284.626648 133.036224,281.164093 142.119705,284.152222 
	C153.390228,287.859894 158.450424,302.807526 152.440689,314.761841 
	C151.774979,316.086060 150.829819,317.269745 149.775681,318.781128 
z"/>
<path fill="#EBEBED" opacity="1.000000" stroke="none" 
	d="
M324.721436,314.584106 
	C324.259247,312.597839 324.312744,310.876831 326.446503,311.059174 
	C328.859467,311.265381 331.983551,309.448639 333.533264,312.859528 
	C335.441925,317.060577 339.002289,317.288879 342.799286,316.806732 
	C345.108826,316.513458 346.953125,315.318573 347.190948,312.768646 
	C347.421082,310.300964 345.624390,309.224670 343.636047,308.602509 
	C340.466431,307.610779 337.196899,306.924438 334.058624,305.849152 
	C327.963257,303.760651 325.314087,300.317627 325.465057,295.071472 
	C325.609497,290.051849 328.859924,286.050751 334.290710,284.207642 
	C342.007843,281.588562 350.682037,283.673340 354.139984,289.200348 
	C355.293060,291.043335 357.427734,293.893860 355.011993,295.285767 
	C352.858398,296.526581 349.287628,297.224548 346.961304,294.194031 
	C346.262787,293.284027 345.606140,292.107544 344.649231,291.675018 
	C341.977509,290.467316 339.165192,290.376099 336.540710,291.945251 
	C335.298279,292.688080 334.746674,293.942017 334.982239,295.375946 
	C335.498993,298.521118 338.276215,298.873230 340.589203,299.541473 
	C343.936310,300.508514 347.426727,300.999969 350.527924,302.726471 
	C354.486328,304.930176 356.806702,308.240417 356.635498,312.830292 
	C356.467987,317.321472 354.305634,320.768005 350.182892,322.766968 
	C341.140350,327.151398 326.784546,324.382721 324.721436,314.584106 
z"/>
<path fill="#ECECEE" opacity="1.000000" stroke="none" 
	d="
M452.996033,286.024536 
	C453.462250,283.475922 455.184052,283.907257 456.604919,283.900818 
	C463.430511,283.869843 470.257660,283.967682 477.081390,283.851929 
	C479.591492,283.809357 480.653687,284.532288 480.644012,287.227051 
	C480.634460,289.908295 480.001129,291.246063 477.016937,291.073944 
	C473.532715,290.873016 470.018982,291.188171 466.534058,290.993317 
	C463.394104,290.817719 462.017365,291.761414 462.120880,295.168121 
	C462.214081,298.236053 462.466461,300.379730 466.370453,300.042847 
	C469.344940,299.786133 472.366028,300.116730 475.354095,299.956573 
	C478.085083,299.810181 479.237579,300.687286 479.221405,303.615265 
	C479.205261,306.537445 478.438019,307.981812 475.258301,307.718414 
	C472.778259,307.513031 470.228455,307.961731 467.778290,307.623016 
	C462.923950,306.951935 461.773773,309.157867 462.122253,313.543213 
	C462.337067,316.246460 463.461914,316.920959 465.856201,316.856171 
	C469.516113,316.757111 473.186859,316.961243 476.841248,316.787994 
	C479.589417,316.657715 480.668884,317.514557 480.660461,320.433136 
	C480.651825,323.420502 479.406189,324.071442 476.736176,324.017181 
	C470.079651,323.881989 463.413788,323.820618 456.761353,324.032379 
	C453.522644,324.135468 452.886810,322.784149 452.919861,319.900604 
	C453.047699,308.747742 452.974854,297.592590 452.996033,286.024536 
z"/>
<path fill="#ECECEE" opacity="1.000000" stroke="none" 
	d="
M556.265503,291.028992 
	C552.840942,291.031372 549.812500,291.306854 546.853455,290.971130 
	C542.448853,290.471283 541.495483,292.432251 541.698792,296.402832 
	C541.848267,299.320984 542.945862,300.144714 545.615051,300.019531 
	C548.605774,299.879211 551.616333,300.128540 554.603394,299.954590 
	C557.468567,299.787720 558.846802,300.532898 558.817139,303.781769 
	C558.788696,306.906006 557.637329,307.907959 554.664734,307.722473 
	C551.679016,307.536163 548.657349,307.872162 545.678955,307.634521 
	C541.972473,307.338715 541.721436,309.421234 541.736084,312.273621 
	C541.750549,315.078674 541.897217,317.158051 545.645447,316.887573 
	C549.455627,316.612640 553.306152,316.948700 557.129395,316.788269 
	C560.136047,316.662109 560.198608,318.431580 560.211609,320.630798 
	C560.224487,322.798309 559.754578,324.047028 557.181763,324.004364 
	C550.023254,323.885681 542.860535,323.894928 535.701660,324.001892 
	C533.192444,324.039368 532.599670,322.863983 532.609680,320.654999 
	C532.660095,309.498260 532.696960,298.340546 532.589233,287.184631 
	C532.562622,284.426758 533.787415,283.815460 536.221130,283.849274 
	C543.047180,283.944092 549.875732,283.917084 556.702637,283.859131 
	C558.766968,283.841614 560.257324,284.043793 560.222046,286.726715 
	C560.188660,289.261688 560.291199,291.566040 556.265503,291.028992 
z"/>
<path fill="#EAEBEC" opacity="1.000000" stroke="none" 
	d="
M80.046417,299.744995 
	C79.473053,303.826538 79.435432,307.445953 80.946793,310.941193 
	C82.397171,314.295349 84.970428,316.292084 88.517563,316.674988 
	C92.088982,317.060577 95.210808,315.762146 96.872879,312.444458 
	C99.022652,308.153290 102.670303,309.974152 105.606064,310.363678 
	C107.631226,310.632416 106.391861,312.845245 105.920586,314.134094 
	C101.724655,325.609253 84.759109,328.518311 75.844749,319.318817 
	C69.579987,312.853668 68.410591,299.974548 73.345375,291.791565 
	C77.757980,284.474457 86.694466,281.368652 95.618958,284.089722 
	C99.963448,285.414368 103.349304,288.025970 105.246758,292.175842 
	C106.043930,293.919312 108.294006,296.682648 105.407784,297.660370 
	C103.041878,298.461823 99.177460,299.698761 97.336975,296.278442 
	C95.337761,292.563141 92.472336,290.742310 88.488739,291.203796 
	C83.810921,291.745697 81.251366,294.902863 80.046417,299.744995 
z"/>
<path fill="#EEEFF0" opacity="1.000000" stroke="none" 
	d="
M236.849655,322.180542 
	C240.819244,310.497101 244.995605,299.264130 248.492371,287.823425 
	C249.839706,283.415222 252.613892,283.871887 255.746735,283.882904 
	C258.856384,283.893860 261.701202,283.359833 263.032043,287.773041 
	C266.196045,298.265350 270.108582,308.530029 273.513000,318.953827 
	C273.983887,320.395599 276.665070,323.078491 273.259125,323.662140 
	C270.620514,324.114288 266.882294,325.816650 264.886139,321.809326 
	C263.798981,319.626831 264.247589,315.983948 261.811249,315.362610 
	C258.368896,314.484741 254.562012,315.024445 250.910690,314.981262 
	C248.053711,314.947479 248.114395,317.441010 247.491272,319.172119 
	C245.585922,324.465454 241.854507,325.689606 236.849655,322.180542 
z"/>
<path fill="#EFF0F1" opacity="1.000000" stroke="none" 
	d="
M393.338623,307.387146 
	C389.420258,310.900116 384.971008,311.379547 380.418579,310.927460 
	C376.592682,310.547546 375.217987,312.027832 375.765747,315.710114 
	C375.910950,316.686371 375.791626,317.702728 375.785095,318.700623 
	C375.753082,323.601105 372.892334,325.484863 368.156036,323.891663 
	C366.401672,323.301483 366.519012,322.023071 366.517426,320.715668 
	C366.503723,309.572235 366.567474,298.428284 366.467377,287.285736 
	C366.443665,284.651306 367.418732,283.770935 369.980591,283.862091 
	C374.133331,284.009796 378.297424,283.989685 382.452606,283.881622 
	C388.224609,283.731476 393.145874,285.414154 395.713562,290.876495 
	C398.394653,296.579987 397.958160,302.189301 393.338623,307.387146 
z"/>
<path fill="#EBECED" opacity="1.000000" stroke="none" 
	d="
M201.565460,298.015106 
	C201.568832,294.695831 201.735840,291.861084 201.534134,289.052826 
	C201.280685,285.523987 201.901093,283.736603 206.248505,283.699951 
	C210.881790,283.660858 210.835693,285.955231 210.787964,289.238190 
	C210.672073,297.207245 210.846664,305.180847 210.704880,313.149078 
	C210.654419,315.984161 211.653900,317.002869 214.452225,316.857727 
	C217.764221,316.685913 221.098770,316.954376 224.411575,316.790314 
	C227.184097,316.652985 227.737350,317.999969 227.735992,320.414581 
	C227.734604,322.877014 227.032578,324.063202 224.334625,324.009583 
	C217.860901,323.880829 211.381180,323.876190 204.907547,324.005646 
	C202.215775,324.059448 201.502823,322.903625 201.535812,320.430542 
	C201.633224,313.125336 201.567383,305.817963 201.565460,298.015106 
z"/>
<path fill="#ECECEE" opacity="1.000000" stroke="none" 
	d="
M184.698578,316.822266 
	C187.155319,317.218018 189.665771,315.718384 191.114166,317.982697 
	C192.842743,320.684998 190.870300,323.919312 187.577530,323.950134 
	C181.424759,324.007690 175.267410,323.840515 169.119324,324.019562 
	C166.019089,324.109802 165.117142,322.930359 165.156067,319.938751 
	C165.294540,309.296997 165.380173,298.648285 165.123367,288.010925 
	C165.027679,284.046783 166.958206,283.915222 169.980057,283.785309 
	C173.451614,283.636017 174.620834,284.734314 174.507858,288.272919 
	C174.263885,295.915222 174.746872,303.588409 174.317032,311.214264 
	C174.044662,316.046173 175.859955,317.447540 180.251175,316.851929 
	C181.557678,316.674713 182.908386,316.823395 184.698578,316.822266 
z"/>
<path fill="#E8E8EA" opacity="1.000000" stroke="none" 
	d="
M365.926697,146.013947 
	C358.596558,148.553528 353.117645,147.326431 349.316772,142.530396 
	C345.938538,138.267685 345.487183,132.208237 348.198090,127.512032 
	C351.124756,122.442078 356.401367,119.940002 362.149689,120.896439 
	C367.362732,121.763809 371.870117,126.033195 372.856171,131.465378 
	C373.988190,137.701630 371.736267,142.558258 365.926697,146.013947 
z"/>
<path fill="#E8E8EA" opacity="1.000000" stroke="none" 
	d="
M284.970367,144.870483 
	C280.426178,151.285858 274.510498,153.439697 268.414001,151.165878 
	C262.641876,149.013046 259.344116,143.736664 259.815125,137.407898 
	C260.238312,131.721008 264.600708,126.660355 270.277863,125.492050 
	C275.226013,124.473770 279.584778,125.732201 282.916107,129.610184 
	C286.747467,134.070236 287.385010,139.118820 284.970367,144.870483 
z"/>
<path fill="#E8E8EA" opacity="1.000000" stroke="none" 
	d="
M312.148376,150.815491 
	C305.317902,146.501877 302.937378,140.969589 304.938477,134.684128 
	C306.812469,128.797958 312.123413,124.967178 318.135834,125.164902 
	C324.304688,125.367767 329.416382,129.764786 330.777557,136.039124 
	C333.034943,146.444672 323.684967,154.071167 312.148376,150.815491 
z"/>
<path fill="#14171D" opacity="1.000000" stroke="none" 
	d="
M381.914612,205.474121 
	C380.097473,214.640244 377.267578,216.245361 369.002808,213.204208 
	C368.222992,212.917267 367.476593,212.524780 366.681641,212.296204 
	C360.889984,210.630951 357.226776,207.621719 356.030029,200.987122 
	C354.248596,191.111176 349.665100,182.096558 344.281708,173.643341 
	C342.517517,170.873154 342.845825,169.220184 345.249390,167.426758 
	C347.111511,166.037384 348.774048,164.359329 350.712616,163.097336 
	C359.252686,157.537827 366.518646,158.919495 372.032410,167.492874 
	C379.363678,178.892258 382.069000,191.620544 381.914612,205.474121 
z"/>
<path fill="#1D1F25" opacity="1.000000" stroke="none" 
	d="
M306.324768,312.797638 
	C304.043182,316.314545 297.706787,318.466644 294.950684,316.635803 
	C292.256165,314.845917 293.930786,311.769348 293.656311,309.277435 
	C293.405518,307.001038 294.981689,306.707062 296.857056,306.582275 
	C303.312042,306.152863 305.285034,307.294250 306.324768,312.797638 
z"/>
<path fill="#26292E" opacity="1.000000" stroke="none" 
	d="
M303.224060,299.328125 
	C301.053894,300.447998 299.094971,300.668915 297.080383,300.609985 
	C295.598938,300.566650 293.730133,300.821045 293.706848,298.705383 
	C293.679016,296.174255 292.204742,292.623871 294.781464,291.372711 
	C297.393005,290.104614 301.095276,289.988525 303.677612,292.446045 
	C305.852386,294.515717 305.402557,296.908783 303.224060,299.328125 
z"/>
<path fill="#22252B" opacity="1.000000" stroke="none" 
	d="
M510.550720,301.772400 
	C508.757477,302.296600 507.312134,302.904175 505.883331,302.867462 
	C504.114777,302.822021 501.266022,304.002502 501.000244,301.122375 
	C500.707428,297.949341 499.448181,294.000916 501.777100,291.641998 
	C503.583130,289.812714 507.100098,290.622833 509.768066,291.713623 
	C512.476440,292.820862 513.165466,295.107300 512.969421,297.795197 
	C512.855347,299.359955 512.199829,300.643036 510.550720,301.772400 
z"/>
<path fill="#1A1D23" opacity="1.000000" stroke="none" 
	d="
M126.369759,308.179199 
	C125.723801,304.098328 125.784218,300.473969 127.223236,296.981110 
	C128.772003,293.221802 131.634048,291.084930 135.663940,291.070251 
	C139.910019,291.054749 142.915146,293.281647 144.405090,297.280518 
	C145.904922,301.305908 145.887787,305.479218 144.754074,309.551483 
	C143.513641,314.007050 140.468475,316.801849 135.742615,316.775909 
	C130.490753,316.747040 127.696144,313.420563 126.369759,308.179199 
z"/>
<path fill="#34363B" opacity="1.000000" stroke="none" 
	d="
M254.355408,297.520020 
	C255.046600,296.431427 255.250412,293.639252 256.602814,296.359863 
	C258.066132,299.303650 258.794312,302.616150 259.802551,305.780762 
	C260.071960,306.626343 259.958038,307.653015 258.999298,307.808014 
	C256.720886,308.176392 254.363541,308.445160 252.134537,307.655731 
	C251.153671,307.308289 251.573608,306.231354 251.809128,305.467957 
	C252.592010,302.930115 253.421829,300.406769 254.355408,297.520020 
z"/>
<path fill="#202227" opacity="1.000000" stroke="none" 
	d="
M387.635437,295.559448 
	C387.668854,302.406403 383.930237,305.371918 377.774414,303.979309 
	C376.382416,303.664398 375.734619,303.050232 375.733368,301.674652 
	C375.732330,300.508698 375.519928,299.299591 375.757690,298.185699 
	C376.266968,295.799591 373.941711,292.096283 377.402222,291.226379 
	C381.198517,290.272095 385.557434,290.315125 387.635437,295.559448 
z"/>
<path fill="#1D1F25" opacity="1.000000" stroke="none" 
	d="
M362.342896,140.916245 
	C358.316803,141.914886 355.256042,140.958755 353.524933,137.587433 
	C351.744232,134.119583 352.206238,130.718964 355.534363,128.331909 
	C358.560974,126.161125 361.836945,126.198265 364.604675,128.806671 
	C367.492706,131.528397 367.943237,134.840714 365.663025,138.195847 
	C364.955719,139.236633 363.720520,139.918701 362.342896,140.916245 
z"/>
<path fill="#202227" opacity="1.000000" stroke="none" 
	d="
M271.511353,145.760010 
	C265.907562,142.697205 264.332275,138.231384 267.246368,134.392151 
	C269.540009,131.370392 272.636292,130.470840 276.073181,132.013535 
	C279.299866,133.461868 280.781860,136.291107 280.133911,139.757080 
	C279.308990,144.169586 276.386780,146.180771 271.511353,145.760010 
z"/>
<path fill="#202227" opacity="1.000000" stroke="none" 
	d="
M311.595398,134.671463 
	C314.546661,131.075516 317.929169,130.221329 321.535736,132.521469 
	C324.646881,134.505646 325.781860,137.589401 324.402985,141.221069 
	C323.009827,144.890213 319.051239,146.778824 315.467621,145.591965 
	C311.243317,144.192902 309.710388,140.210785 311.595398,134.671463 
z"/>
</svg>